<?xml version="1.0" encoding="UTF-8" standalone="no"?>
<svg xmlns:inkscape="http://www.inkscape.org/namespaces/inkscape" xmlns:sodipodi="http://sodipodi.sourceforge.net/DTD/sodipodi-0.dtd" xmlns:xlink="http://www.w3.org/1999/xlink" xmlns="http://www.w3.org/2000/svg" xmlns:svg="http://www.w3.org/2000/svg" version="1.0" id="katman_1" x="0px" y="0px" viewBox="0 0 500 500" xml:space="preserve" sodipodi:docname="ApeCoin (APE).svg" width="500" height="500" inkscape:version="1.2.2 (732a01da63, 2022-12-09)"><defs id="defs164">
	
	

		<defs id="defs5">
			<path id="SVGID_1_" d="m 107.6,169 v 0 c 34.1,0 61.7,27.6 61.7,61.7 v 0 c 0,34.1 -27.6,61.7 -61.7,61.7 v 0 c -34.1,0 -61.7,-27.6 -61.7,-61.7 v 0 c 0,-34.1 27.6,-61.7 61.7,-61.7 z"></path>
		</defs>
		
		
	
			
				<radialGradient id="SVGID_00000123416455692482295160000012814693941384631946_" cx="2.7676001" cy="451.87759" r="0.8391" gradientTransform="matrix(0,334.58509,334.58509,0,-150941.51,-650.06281)" gradientUnits="userSpaceOnUse">
				<stop offset="0.1667" style="stop-color:#073183" id="stop10"></stop>
				<stop offset="1" style="stop-color:#0054F9" id="stop12"></stop>
			</radialGradient>
			
			
			
		<clipPath id="clipPath664"><g id="g668" transform="matrix(0.2468,0,0,0.2468,45.899999,169)"><use xlink:href="#SVGID_1_" style="overflow:visible" id="use666" transform="matrix(4.0518639,0,0,4.0518639,-185.98055,-684.765)"></use></g></clipPath><clipPath id="clipPath670"><g id="g674" transform="matrix(0.2468,0,0,0.2468,45.899999,169)"><use xlink:href="#SVGID_1_" style="overflow:visible" id="use672" transform="matrix(4.0518639,0,0,4.0518639,-185.98055,-684.765)"></use></g></clipPath><clipPath id="clipPath676"><g id="g680"><use xlink:href="#SVGID_1_" style="overflow:visible" id="use678" transform="matrix(4.0518639,0,0,4.0518639,-185.98055,-684.765)"></use></g></clipPath></defs>
<style type="text/css" id="style2">
	.st0{clip-path:url(#SVGID_00000003096892179491587960000013569189514841532821_);}
	.st1{fill:url(#SVGID_00000142856032257251022910000002248393308820826283_);}
	.st2{fill:#FFFFFF;}
	.st3{opacity:0.8;}
	
		.st4{fill:none;stroke:url(#SVGID_00000003067223355841088360000015311150523138962837_);stroke-width:0.8533;stroke-miterlimit:10;}
	
		.st5{fill:none;stroke:url(#SVGID_00000150060997406384476860000004775753438862336703_);stroke-width:0.8533;stroke-miterlimit:10;}
	.st6{fill:none;stroke:url(#SVGID_00000014606580097147091370000015756519722879008930_);stroke-width:0.8;stroke-miterlimit:10;}
	
		.st7{fill:none;stroke:url(#SVGID_00000092428395882482557930000001634602653159452338_);stroke-width:0.7466;stroke-miterlimit:10;}
	
		.st8{fill:none;stroke:url(#SVGID_00000061465915800496704660000007132421187050912130_);stroke-width:0.6933;stroke-miterlimit:10;}
	
		.st9{fill:none;stroke:url(#SVGID_00000171691187652485191670000003705632594741481372_);stroke-width:0.6933;stroke-miterlimit:10;}
	.st10{fill:#1D1D1B;}
</style>
<g class="st3" id="g135" transform="matrix(4.0518639,0,0,4.0518639,-185.98055,-684.765)" clip-path="url(#clipPath664)">
				
					<linearGradient id="SVGID_00000033329476302998119540000000633813375162624447_" gradientUnits="userSpaceOnUse" x1="158.17999" y1="222.2265" x2="299.5285" y2="73.873802" gradientTransform="matrix(1,0,0,-1,-120.9449,377.3622)">
					<stop offset="0.2057" style="stop-color:#89D0FF" id="stop67"></stop>
					<stop offset="0.3984" style="stop-color:#EBBF9A" id="stop69"></stop>
					<stop offset="0.6015" style="stop-color:#EB8280" id="stop71"></stop>
					<stop offset="0.8411" style="stop-color:#A281FF" id="stop73"></stop>
				</linearGradient>
				
					<path style="fill:none;stroke:url(#SVGID_00000033329476302998119540000000633813375162624447_);stroke-width:0.8533;stroke-miterlimit:10" d="m 96.7,299.6 c -4.5,0 -8.8,-0.3 -12.4,-0.6 l -1,-0.1 -1,-0.1 c -0.4,-0.1 -1,-0.1 -1.6,-0.2 -3.5,-0.4 -9.9,-1.1 -17,-4.4 l -1.1,-0.5 -1,-0.6 C 48,285.5 42.8,273.9 40.1,267.8 c -0.2,-0.4 -0.4,-0.9 -0.6,-1.3 -1.4,-2.8 -2.3,-5.4 -3,-7.7 l -0.2,-0.5 -0.1,-0.5 c -2,-7 -2.5,-13.1 -1.6,-19.1 0.9,-6 3.1,-11.5 7,-17.3 l 2,-3.3 c 0.4,-0.7 0.7,-1.4 0.9,-2.2 1.5,-7.6 5,-13 6.7,-15.6 0.5,-3.1 1.2,-6.2 2.3,-9.1 l 0.2,-0.4 0.2,-0.4 c 0,-0.1 0.1,-0.2 0.1,-0.4 0.8,-2.3 2.6,-7.7 7.2,-13.4 l 1.7,-2.1 1.8,-1.6 c 4.5,-4.1 9.9,-7.2 15.8,-8.9 3.3,-1 6.7,-1.6 10.1,-1.8 h 0.3 0.5 c 0.6,0 1.2,0 1.8,0 2.1,0 4.3,0.2 6.4,0.5 1.3,0.2 2.7,0.1 3.9,-0.4 3.6,-1.5 7.5,-2.5 11.4,-3.1 0.3,0 0.6,-0.1 0.8,-0.1 0.6,-0.1 1.6,-0.2 2.8,-0.3 2.1,-0.2 5.2,-0.4 8.7,-0.4 6.7,0 12.5,0.9 17.7,2.7 l 0.4,0.2 0.4,0.2 c 11.4,4.3 17.2,10.3 21.4,15.7 l 0.2,0.3 0.6,0.5 c 3.8,3 7,6.6 9.5,10.7 l 0.8,1.3 0.7,1.3 c 5.6,11.4 3.8,21.9 3.1,25.9 v 0.2 c -0.5,2.9 -1.2,5.8 -2.3,8.5 -0.4,2.7 -1,5.3 -1.9,7.8 -1.5,4.5 -3.7,8.8 -6.5,12.7 -1.6,2.3 -3.4,4.4 -5.5,6.4 -0.7,0.7 -1.2,1.6 -1.3,2.6 -0.1,0.6 -0.2,1.2 -0.3,1.8 -1.6,8.8 -5.5,14.9 -7,17.3 l -4.7,6.8 c -5.7,7.1 -12.5,11.8 -20.7,14.3 l -2,0.6 -2.1,0.4 c -2.5,0.4 -4.9,0.6 -7.4,0.6 -0.3,0 -0.7,0 -1.1,0 h -0.2 -0.4 -0.5 v 0 c -0.9,0 -1.9,0.2 -2.8,0.5 -5.3,1.1 -11.3,1.9 -18.6,1.9 z" id="path76"></path>
				
					<linearGradient id="SVGID_00000068654898176077017010000011311026652662213519_" gradientUnits="userSpaceOnUse" x1="163.69949" y1="215.8756" x2="294.0061" y2="78.551903" gradientTransform="matrix(1,0,0,-1,-120.9449,377.3622)">
					<stop offset="0.2057" style="stop-color:#89D0FF" id="stop78"></stop>
					<stop offset="0.3984" style="stop-color:#EBBF9A" id="stop80"></stop>
					<stop offset="0.6015" style="stop-color:#EB80DA" id="stop82"></stop>
					<stop offset="0.8411" style="stop-color:#A281FF" id="stop84"></stop>
				</linearGradient>
				
					<path style="fill:none;stroke:url(#SVGID_00000068654898176077017010000011311026652662213519_);stroke-width:0.8533;stroke-miterlimit:10" d="m 96.7,294.9 c -4.3,0 -8.5,-0.3 -12,-0.6 l -0.8,-0.1 -0.8,-0.1 C 82.6,294 82,294 81.3,293.9 c -3.4,-0.4 -9,-1 -15.2,-3.9 l -0.9,-0.4 -0.9,-0.5 c -12,-6.8 -16.5,-16.8 -19.2,-22.8 -0.2,-0.4 -0.4,-1 -0.6,-1.4 -1.2,-2.5 -2.1,-4.9 -2.7,-7.1 l -0.1,-0.4 -0.1,-0.4 c -1.8,-6.3 -2.2,-11.6 -1.4,-16.8 0.8,-5.2 2.8,-10 6.2,-15.1 l 2.6,-4.2 c 0.5,-0.7 0.8,-1.6 0.9,-2.4 1.3,-7.2 4.7,-12.2 6.2,-14.5 l 0.2,-0.3 0.1,-0.1 c 0,-0.1 0.1,-0.1 0.1,-0.2 0.1,-0.3 0.2,-0.6 0.3,-0.9 0.4,-2.9 1.1,-5.8 2.1,-8.6 L 59,193.5 V 193 c 0,-0.1 0.1,-0.2 0.2,-0.6 0.7,-2.2 2.3,-6.8 6.2,-11.7 l 1.4,-1.8 1.5,-1.3 c 3.9,-3.6 8.6,-6.2 13.7,-7.7 2.9,-0.9 5.9,-1.4 8.9,-1.6 h 0.3 0.4 c 0.5,0 1,0 1.5,0 2.2,0 4.3,-0.6 6.4,-0.2 1.6,0.3 3.3,0.2 4.9,-0.5 2.9,-1.3 6.7,-1.8 11.1,-2.3 0.3,0 0.6,-0.1 0.8,-0.1 0.6,-0.1 1.5,-0.2 2.6,-0.3 1.9,-0.2 4.9,-0.4 8.2,-0.4 6.1,0 11.3,0.8 15.9,2.4 l 0.4,0.1 0.4,0.1 c 10.1,3.8 15.1,8.9 19,13.9 0.2,0.3 0.4,0.6 0.5,0.7 l 0.1,0.1 0.7,0.7 0.1,0.1 c 3.4,2.6 6.2,5.8 8.4,9.4 l 0.6,1.1 0.6,1.1 c 4.8,9.8 3.3,18.7 2.7,22.5 v 0.2 c -0.5,2.8 -1.2,5.5 -2.2,8.1 -0.3,2.5 -0.9,5 -1.7,7.5 -1.3,4 -3.2,7.8 -5.7,11.2 -1.7,2.4 -3.6,4.6 -5.8,6.5 -1,0.9 -1.6,2.2 -1.8,3.5 -0.1,1 -0.2,2 -0.4,2.9 -1.4,7.7 -4.8,13.1 -6.4,15.5 l -3.8,5.6 c -5.1,6.6 -11.1,10.8 -18.5,13.1 l -1.7,0.5 -1.8,0.3 c -2.1,0.4 -4.3,0.6 -6.5,0.6 -0.3,0 -0.6,0 -1,0 h -0.1 -0.2 c 0,0 -0.1,0 -0.2,0 h -0.4 -0.4 -0.8 c -1,0 -2,0.2 -3,0.5 -4.8,1.5 -10.5,2.2 -17.4,2.2 z" id="path87"></path>
				
					<linearGradient id="SVGID_00000175300545019518393610000009698791856293162644_" gradientUnits="userSpaceOnUse" x1="169.2429" y1="210.3658" x2="288.50659" y2="84.073601" gradientTransform="matrix(1,0,0,-1,-120.9449,377.3622)">
					<stop offset="0.2057" style="stop-color:#89D0FF" id="stop89"></stop>
					<stop offset="0.3984" style="stop-color:#EBBF9A" id="stop91"></stop>
					<stop offset="0.6015" style="stop-color:#EB8280" id="stop93"></stop>
					<stop offset="0.8411" style="stop-color:#A281FF" id="stop95"></stop>
				</linearGradient>
				
					<path style="fill:none;stroke:url(#SVGID_00000175300545019518393610000009698791856293162644_);stroke-width:0.8;stroke-miterlimit:10" d="m 96.7,289.4 c -4.1,0 -8.2,-0.3 -11.5,-0.5 l -0.7,-0.1 -0.7,-0.1 c -0.6,-0.1 -1.3,-0.2 -1.9,-0.2 -3.2,-0.3 -8.1,-0.9 -13.5,-3.4 l -0.7,-0.3 -0.7,-0.4 c -10.4,-5.9 -14.3,-14.5 -16.8,-20.2 -0.2,-0.5 -0.5,-1 -0.7,-1.6 -1.1,-2.2 -1.8,-4.4 -2.5,-6.4 l -0.1,-0.3 -0.1,-0.3 c -1.5,-5.5 -2,-10.1 -1.3,-14.5 0.7,-4.5 2.4,-8.6 5.5,-13.1 l 0.4,-0.5 0.4,-0.5 c 0.3,-0.3 0.5,-0.6 0.7,-0.9 l 1.6,-2.8 c 0.5,-0.9 0.9,-1.9 1,-3 1,-6.4 4.1,-11 5.5,-13.1 v 0 c 0.1,-0.1 0.2,-0.3 0.2,-0.4 l 0.3,-0.5 c 0.1,-0.3 0.3,-0.6 0.4,-1 0.1,-0.4 0.3,-1 0.5,-1.5 0.3,-2.7 1,-5.4 1.9,-8 l 0.1,-0.3 0.1,-0.3 c 0.1,-0.3 0.2,-0.5 0.3,-0.9 0.7,-2 1.9,-5.8 5.3,-10 l 1.2,-1.4 1.2,-1.1 c 3.3,-3 7.3,-5.3 11.6,-6.6 2.5,-0.7 5.1,-1.2 7.7,-1.3 h 0.2 0.3 c 0.4,0 0.8,0 1.2,0 2.2,0 4.5,0.3 6.6,0.8 1.9,0.5 3.9,0.3 5.6,-0.6 2.8,-1.3 6.5,-2.8 10.9,-3.3 0.3,0 0.6,-0.1 0.8,-0.1 0.5,-0.1 1.4,-0.2 2.5,-0.3 1.8,-0.2 4.6,-0.4 7.6,-0.4 5.5,0 10.1,0.7 14.1,2.1 l 0.3,0.1 0.3,0.1 c 9.3,3.5 13.5,8.1 16.6,12.1 0.7,0.9 0.8,1 1.3,1.5 l 0.6,0.5 0.2,0.2 c 1.5,1.2 4.7,3.6 7.4,8.1 l 0.5,0.9 0.4,0.9 c 4,8.2 2.8,15.6 2.2,19.2 v 0.2 c -0.4,2.6 -1.2,5.2 -2.2,7.6 v 0.2 c -0.3,2.3 -0.8,4.6 -1.5,6.9 -1.1,3.5 -2.8,6.8 -5,9.8 -1.8,2.6 -4,4.9 -6.5,6.9 -0.6,0.5 -1.1,1.1 -1.4,1.7 -0.3,0.7 -0.5,1.4 -0.6,2.2 -0.1,1.5 -0.2,2.9 -0.5,4.4 -1.2,6.7 -4.2,11.4 -5.7,13.7 l -3,4.4 c -4.5,6 -9.8,9.9 -16.2,11.8 l -1.3,0.4 -1.4,0.2 c -1.8,0.3 -3.7,0.5 -5.5,0.5 -0.3,0 -0.6,0 -0.9,0 h -0.1 -0.3 c -0.1,0 -0.2,0 -0.6,0 h -0.3 -0.3 l -1.5,0.1 c -1.1,0 -2.1,0.2 -3.2,0.6 -4.4,1.4 -9.7,2.1 -16.3,2.1 z" id="path98"></path>
				
					<linearGradient id="SVGID_00000072252130097440594890000017679058210279706777_" gradientUnits="userSpaceOnUse" x1="174.7832" y1="204.8387" x2="282.9794" y2="89.610703" gradientTransform="matrix(1,0,0,-1,-120.9449,377.3622)">
					<stop offset="0.2057" style="stop-color:#89D0FF" id="stop100"></stop>
					<stop offset="0.3984" style="stop-color:#EBBF9A" id="stop102"></stop>
					<stop offset="0.6015" style="stop-color:#EB80E7" id="stop104"></stop>
					<stop offset="0.8411" style="stop-color:#A281FF" id="stop106"></stop>
				</linearGradient>
				
					<path style="fill:none;stroke:url(#SVGID_00000072252130097440594890000017679058210279706777_);stroke-width:0.7466;stroke-miterlimit:10" d="m 96.7,283.9 c -4,0 -7.8,-0.3 -11.1,-0.5 h -0.5 l -0.5,-0.1 c -0.7,-0.1 -1.4,-0.2 -2.1,-0.2 -3,-0.3 -7.1,-0.8 -11.7,-2.9 l -0.6,-0.3 -0.5,-0.3 c -8.8,-5 -12.1,-12.3 -14.5,-17.6 -0.2,-0.6 -0.5,-1.1 -0.8,-1.7 -1,-2 -1.7,-4 -2.2,-5.7 L 52.1,254.3 52,254 c -2.6,-9.2 -1.6,-15.6 3.5,-23 l 0.3,-0.4 0.3,-0.4 c 0.3,-0.4 0.7,-0.8 1,-1.2 0.5,-0.6 0.9,-1.2 1.5,-1.9 0.3,-0.4 0.6,-0.8 0.8,-1.3 l 0.6,-1.5 c 0.2,-0.6 0.4,-1.3 0.5,-2 0.5,-5.9 3.4,-10.2 4.8,-12.3 v 0 c 0.1,-0.2 0.3,-0.4 0.3,-0.5 l 0.3,-0.5 0.1,-0.1 c 0.2,-0.4 0.5,-1.1 0.8,-1.9 0.2,-0.5 0.4,-1.4 0.7,-2.1 0,0 0,-0.1 0,-0.1 0.3,-2.5 0.8,-4.9 1.7,-7.2 l 0.1,-0.2 0.1,-0.2 c 0.2,-0.4 0.3,-0.7 0.4,-1.2 0.6,-1.8 1.6,-4.9 4.3,-8.2 l 0.9,-1.1 0.9,-0.8 c 6.4,-5.8 13.6,-6.3 16,-6.5 h 0.2 0.3 c 0.3,0 0.7,0 1,0 2.9,0 5.7,0.6 8.3,1.7 0.5,0.2 1,0.3 1.5,0.3 0.5,0 1,-0.2 1.4,-0.4 v 0 c 2.4,-1.4 6.9,-4 12.6,-4.7 0.3,0 0.5,-0.1 0.7,-0.1 0.5,-0.1 1.3,-0.2 2.3,-0.3 1.7,-0.2 4.3,-0.4 7.1,-0.4 4.8,0 8.9,0.6 12.3,1.8 l 0.2,0.1 0.2,0.1 c 8,3 11.4,6.8 14.2,10.4 0.8,1 1.1,1.4 2,2.2 l 0.4,0.4 0.4,0.4 0.3,0.2 c 1.4,1 3.9,3 6.1,6.7 l 0.4,0.6 0.3,0.7 c 3.2,6.6 2.2,12.6 1.7,15.8 v 0.2 c -0.4,2.3 -1.1,4.6 -2,6.8 l -0.1,0.2 c 0,0 0,0.1 0,0.2 0,0.2 -0.1,0.4 -0.1,0.6 v 0.3 c -0.2,2 -0.7,3.9 -1.3,5.8 -1,3 -2.4,5.8 -4.2,8.3 -1.8,2.6 -3.9,4.7 -6.1,6.4 -1,0.7 -1.8,1.7 -2.4,2.8 -0.6,1.1 -0.9,2.3 -0.9,3.6 0,1.6 -0.2,3.1 -0.5,4.6 -1.1,5.7 -3.5,9.5 -5,11.9 l -2.2,3.2 c -3.9,5.4 -8.4,8.9 -13.9,10.5 l -0.3,0.1 c -0.5,0.1 -0.9,0.3 -1.4,0.3 l -0.3,0.1 c -1.5,0.3 -3.1,0.4 -4.6,0.4 -0.3,0 -0.5,0 -0.8,0 v 0 c -0.1,0 -0.3,0 -0.4,0 -0.1,0 -0.4,0 -0.9,0 h -0.2 -0.2 c -0.7,0 -1.7,0.1 -2.5,0.1 -1.1,0 -2.2,0.3 -3.3,0.6 -4.4,1.3 -9.2,2 -15.5,2 z" id="path109"></path>
				<g id="g133">
					
						<linearGradient id="SVGID_00000008868964787355368720000000271267510181632141_" gradientUnits="userSpaceOnUse" x1="180.3131" y1="199.32179" x2="277.46191" y2="95.167603" gradientTransform="matrix(1,0,0,-1,-120.9449,377.3622)">
						<stop offset="0.2057" style="stop-color:#89D0FF" id="stop111"></stop>
						<stop offset="0.3984" style="stop-color:#EBBF9A" id="stop113"></stop>
						<stop offset="0.6015" style="stop-color:#EB80D3" id="stop115"></stop>
						<stop offset="0.8411" style="stop-color:#A281FF" id="stop117"></stop>
					</linearGradient>
					
						<path style="fill:none;stroke:url(#SVGID_00000008868964787355368720000000271267510181632141_);stroke-width:0.6933;stroke-miterlimit:10" d="m 96.7,278.4 c -3.8,0 -7.5,-0.3 -10.7,-0.5 h -0.3 -0.3 c -0.8,-0.1 -1.5,-0.2 -2.2,-0.3 -2.8,-0.3 -6.2,-0.7 -10,-2.4 l -0.4,-0.2 -0.3,-0.2 c -7.2,-4.1 -10,-10.2 -12.1,-15.1 -0.3,-0.6 -0.6,-1.2 -0.8,-1.8 -0.9,-1.7 -1.4,-3.4 -1.9,-4.9 l -0.1,-0.2 v -0.2 c -2.1,-7.6 -1.4,-12.4 2.7,-18.4 l 0.2,-0.3 0.2,-0.3 c 0.4,-0.5 0.7,-0.9 1,-1.3 1.1,-1.4 2.1,-2.8 3.7,-4.4 0.3,-0.4 0.5,-0.8 0.6,-1.3 l 0.1,-1.8 v -0.6 -0.6 c 0.2,-4.9 2.6,-8.6 3.9,-10.5 0.2,-0.2 0.3,-0.5 0.4,-0.6 l 0.2,-0.4 0.2,-0.3 c 0.2,-0.4 0.9,-1.8 1.4,-3.1 0.2,-0.6 0.5,-1.6 0.8,-2.4 0.1,-0.3 0.1,-0.3 0.2,-0.9 0.2,-2.1 0.7,-4.1 1.4,-6 l 0.1,-0.2 0.1,-0.2 c 0.2,-0.5 0.3,-0.9 0.5,-1.4 0.5,-1.6 1.3,-3.9 3.4,-6.5 l 0.6,-0.7 0.6,-0.5 c 4.5,-4.1 9.4,-4.9 12.7,-5.1 h 0.1 0.2 c 0.2,0 0.5,0 0.7,0 2.8,0 6.2,1.4 8,2.2 0.4,0.2 0.9,0.3 1.3,0.3 0.5,0 0.9,-0.1 1.4,-0.2 1.1,-0.4 2.2,-0.9 3.2,-1.4 2.3,-1.3 6,-3.5 10.7,-4 0.3,0 0.5,-0.1 0.7,-0.1 0.5,-0.1 1.2,-0.1 2.1,-0.2 1.6,-0.2 4,-0.3 6.6,-0.3 4.2,0 7.6,0.5 10.5,1.4 l 0.1,0.1 0.1,0.1 c 6.7,2.5 9.3,5.4 11.8,8.6 0.8,1 1.4,1.8 2.6,2.9 l 0.3,0.3 0.3,0.3 c 0.2,0.2 0.5,0.5 0.8,0.7 1.1,0.9 3.1,2.4 4.8,5.2 l 0.3,0.4 0.2,0.4 c 2.5,5 1.7,9.7 1.2,12.5 v 0.2 c -0.3,1.9 -0.9,3.8 -1.6,5.6 v 0 c -0.2,0.5 -0.4,1 -0.4,1.5 -0.1,0.4 -0.1,0.6 -0.1,1 v 0.3 c -0.2,1.6 -0.5,3.2 -1.1,4.7 -0.8,2.5 -2,4.8 -3.5,6.8 -2.2,3.2 -4.8,5.5 -8,6.9 -0.8,0.3 -1.4,0.9 -1.9,1.6 -0.5,0.7 -0.7,1.5 -0.8,2.3 0,0.3 0,0.6 0,0.8 0.2,2.4 0.3,5.1 -0.2,8 -0.9,4.7 -2.8,7.8 -4.3,10.1 0,0 -6.8,9.5 -13,11.4 l -0.7,0.2 -0.7,0.1 c -1.2,0.2 -2.4,0.3 -3.6,0.3 -0.2,0 -0.5,0 -0.7,0 v 0 c -0.2,0 -0.3,0 -0.5,0 -0.2,0 -0.6,0 -1.3,0 h -0.2 -0.1 c -2.4,0.1 -4.6,0.2 -5.2,0.3 -0.3,0.1 -0.7,0.1 -1,0.3 -4.1,1.2 -8.7,2 -15,2 z" id="path120"></path>
					
						<linearGradient id="SVGID_00000072989739063693790560000002863000919125296012_" gradientUnits="userSpaceOnUse" x1="185.8605" y1="193.82269" x2="271.95499" y2="100.7" gradientTransform="matrix(1,0,0,-1,-120.9449,377.3622)">
						<stop offset="0.2057" style="stop-color:#89D0FF" id="stop122"></stop>
						<stop offset="0.3984" style="stop-color:#EBBF9A" id="stop124"></stop>
						<stop offset="0.6015" style="stop-color:#A280EB" id="stop126"></stop>
						<stop offset="0.8411" style="stop-color:#A281FF" id="stop128"></stop>
					</linearGradient>
					
						<path style="fill:none;stroke:url(#SVGID_00000072989739063693790560000002863000919125296012_);stroke-width:0.6933;stroke-miterlimit:10" d="m 96.7,272.8 c -3.6,0 -7.2,-0.2 -10.3,-0.5 H 86.2 86 c -0.8,-0.1 -1.6,-0.2 -2.4,-0.3 -2.6,-0.3 -5.3,-0.6 -8.3,-2 l -0.2,-0.1 -0.2,-0.1 c -5.7,-3.2 -7.8,-7.9 -9.8,-12.5 -0.3,-0.7 -0.6,-1.3 -0.9,-2 -0.7,-1.4 -1.2,-2.8 -1.6,-4.2 v -0.1 -0.1 c -1.7,-6 -1.3,-9.1 1.9,-13.7 l 0.1,-0.1 0.1,-0.1 c 0.4,-0.5 0.7,-0.9 1,-1.4 1.5,-2 2.9,-3.8 5.8,-6.5 v 0 c 0.2,-0.2 0.4,-0.5 0.4,-0.8 0.1,-0.3 0.1,-0.6 0,-0.9 l -0.5,-1.5 c -0.1,-0.5 -0.2,-1 -0.2,-1.5 v 0 -0.4 -0.3 c 0.1,-3.3 1.9,-5.9 3,-7.7 0.2,-0.3 0.4,-0.5 0.5,-0.7 l 0.1,-0.2 0.1,-0.2 c 0.6,-0.8 1.6,-3.1 2.1,-4.5 0.1,-0.4 0.5,-1.6 0.8,-2.5 0.2,-0.6 0.3,-1.3 0.4,-2 0.2,-1.7 0.6,-3.3 1.1,-4.9 v -0.1 -0.1 c 0.3,-0.7 0.4,-1.2 0.6,-1.7 0.5,-1.4 1,-3 2.4,-4.8 l 0.3,-0.4 0.3,-0.3 c 3.2,-2.9 6.7,-3.5 9.4,-3.7 h 0.1 0.1 c 0.2,0 0.3,0 0.5,0 2.6,0 4.6,1.1 6,1.8 l 0.3,0.2 v 0 c 0.4,0.2 0.7,0.4 1,0.5 0.8,0.4 1.8,0.5 2.7,0.3 1.8,-0.5 4.7,-1.6 6.6,-2.6 v 0 c 2,-1.2 5.1,-2.9 8.6,-3.3 0.2,0 0.4,-0.1 0.6,-0.1 0.4,-0.1 1.1,-0.1 1.9,-0.2 1.5,-0.1 3.7,-0.3 6.1,-0.3 3.6,0 6.4,0.4 8.7,1.1 h 0.1 0.1 c 5.3,2 7.3,4.1 9.5,6.9 0.9,1.1 1.7,2.2 3.3,3.6 l 0.1,0.1 0.1,0.1 c 0.4,0.4 0.9,0.8 1.4,1.2 0.9,0.7 2.2,1.7 3.4,3.7 l 0.1,0.2 0.1,0.2 c 1.7,3.4 1.1,6.7 0.7,9.2 v 0.2 c -0.2,1.5 -0.7,3 -1.3,4.4 -0.4,0.8 -0.6,1.7 -0.8,2.6 -0.1,0.5 -0.2,0.9 -0.2,1.3 v 0.3 c -0.1,1.2 -0.4,2.5 -0.8,3.7 -0.6,1.9 -1.5,3.7 -2.7,5.4 -2,2.9 -4.3,4.7 -7.3,5.7 -1.4,0.5 -2.7,1.4 -3.5,2.6 l -0.2,0.4 -0.3,0.3 c -0.8,0.9 -0.5,4.2 -0.4,6.2 0.1,2.2 0.3,4.5 -0.1,6.6 -0.7,3.6 -2.2,6.1 -3.6,8.3 0,0 -5.2,7.5 -9.9,8.9 l -0.3,0.1 -0.4,0.1 c -0.9,0.2 -1.8,0.2 -2.7,0.2 -0.2,0 -0.4,0 -0.6,0 -0.2,0 -0.4,0 -0.7,0 -0.3,0 -0.8,0 -1.6,0.1 h -0.1 -0.1 c -3.1,0.1 -5,0.2 -6.1,0.4 -0.7,0.1 -1.4,0.3 -2.1,0.6 -2.4,1.4 -6.3,1.9 -11.9,1.9 z" id="path131"></path>
				</g>
			</g><g id="g65" transform="matrix(4.0518639,0,0,4.0518639,-185.98055,-684.765)" clip-path="url(#clipPath670)">
				<path class="st2" d="m 149.5,211.4 c -0.3,1.5 -0.6,2.2 -0.9,3.1 v 0 c -0.4,0.9 -0.8,2 -1.2,4 -0.2,0.8 -0.2,1.4 -0.3,2 v 0 0 c -0.1,0.9 -0.2,1.4 -0.5,2.5 -0.3,0.8 -0.8,2.2 -1.9,3.7 -0.9,1.2 -2.5,3.3 -4.5,3.5 -0.2,0 -0.6,0 -0.7,0 -5.8,-3 -10.8,-5.2 -12.6,-5.7 -2,-0.6 -1.8,-5 -1.5,-8.8 0.1,-1.7 0.2,-3.4 0.1,-4.8 -0.3,-4.9 -1.1,-10.2 -5.4,-12.9 -2.5,-1.6 -5.8,-2 -9,-2 0.6,-0.3 1.2,-0.7 1.9,-1.1 v 0 c 1.8,-1.1 4.1,-2.4 6.4,-2.6 0.7,-0.1 1.5,-0.2 2.2,-0.2 4.6,-0.5 8.6,-1 12.7,0.5 1.9,0.7 5.8,2.8 6.8,4.8 0.7,1.4 1.9,2.5 4.3,4.7 1.2,1.2 2.1,1.8 2.7,2.3 v 0 c 0.8,0.7 1,0.8 1.3,1.3 0.8,1.7 0.5,3.4 0.1,5.7 z" id="path17"></path>
				<path class="st2" d="m 128.2,231.5 c 0.3,0.1 0.5,0.5 0.3,0.8 -0.6,0.9 -1.3,2.2 -2.1,3.7 -0.4,0.7 -0.8,1.5 -1.1,2 -1.1,1.9 -1.2,3.6 -1.3,4.9 -0.1,1.4 -0.1,2 -1,2.5 -0.7,0.5 -1.4,0.6 -6.2,1.3 -0.8,0.1 -1.2,0.3 -1.5,0.4 -0.1,0 -0.1,0 -0.2,0.1 -0.3,0.1 -0.7,-0.1 -0.6,-0.5 0,-0.7 0.1,-1.5 0.1,-2.5 V 244 c 0,-0.9 0,-1.7 0,-2.3 -0.1,-1.2 -0.1,-1.7 0.3,-2.3 0.4,-0.6 0.7,-0.8 1.2,-1.2 0.7,-0.5 1.7,-1.1 3.2,-3.1 0.8,-1.1 0.9,-1.6 1.1,-2.1 0,-0.2 0.1,-0.3 0.7,-0.7 0.6,-0.5 2.5,-1.9 5,-1.5 0.4,0.1 1.3,0.4 2.1,0.7 z" id="path19"></path>
				<path class="st2" d="m 109.3,253.6 c -0.1,0.1 -0.2,0.2 -0.4,0.2 -0.5,0 -0.9,-0.1 -1.1,-0.4 -0.5,-0.6 -0.4,-1.8 -0.3,-2.5 l 2,-0.5 c 0.1,1.1 0.2,2.6 -0.2,3.2 z" id="path21"></path>
				<path class="st2" d="m 109.4,246.3 c 0,0.3 -0.1,0.6 -0.1,1 0,0.1 0,0.3 0,0.4 0,0.3 0,0.9 0,1.1 -0.6,0.2 -1.2,0.2 -1.9,0.2 0,-0.2 0,-0.5 0,-0.7 0,-0.2 0,-0.3 0,-0.5 0,-0.2 0,-0.3 0,-0.5 0,-0.4 0,-1 0.1,-1.2 0.2,0 0.4,-0.1 0.6,-0.1 0.4,-0.1 1,-0.2 1.3,-0.2 0.1,0.1 0,0.3 0,0.5 z" id="path23"></path>
				<path class="st2" d="m 105.7,253 c -0.1,1 -0.4,2.3 -1.4,2.5 -0.4,0.1 -0.7,0 -0.8,-0.2 -0.7,-0.6 -0.8,-2.5 -0.7,-3.8 0.4,0 1,-0.1 1.7,-0.2 0.4,-0.1 0.8,-0.2 1.2,-0.2 0,0.5 0,1.2 0,1.9 z" id="path25"></path>
				<path class="st2" d="M 105.2,249.3 103,250 c 0.1,-0.9 0.3,-2.1 0.3,-2.9 0,-0.6 0.2,-0.7 0.2,-0.8 0,0 0,0 0.1,0 0,0 0,0 0,0 v 0 l 1.4,-0.1 c 0.2,0.8 0.2,2.2 0.2,3.1 z" id="path27"></path>
				<path class="st2" d="m 101.7,248.6 c -0.1,0.3 -0.3,1.3 -0.4,1.9 l -2.8,-0.1 c 0.2,-0.9 0.4,-1.7 0.6,-2.4 0.2,-0.7 0.5,-1.2 0.7,-1.3 0.3,-0.2 0.9,-0.2 1.3,0.1 0.6,0.5 0.8,1.1 0.6,1.8 z" id="path29"></path>
				<path class="st2" d="m 100.6,257 c -0.2,0.3 -0.5,0.4 -0.7,0.5 -0.3,0 -0.5,0 -0.7,-0.2 -0.9,-0.8 -0.8,-3.4 -0.8,-4.7 1.1,-0.3 2.4,-0.5 3,-0.5 0.1,1 0.1,3.8 -0.8,4.9 z" id="path31"></path>
				<path class="st2" d="m 97,250.3 c -0.1,0.4 -0.3,0.7 -0.4,1 -0.3,0.1 -1.3,0 -2.3,-0.2 l 0.7,-4.3 c 1.1,-0.3 2.4,-0.4 2.8,-0.1 0.4,0.5 -0.4,2.7 -0.8,3.6 z" id="path33"></path>
				<path class="st2" d="m 95.8,257.7 c -0.5,0.7 -1.3,1 -2.5,1 -0.8,0 -1.1,-0.3 -1.2,-0.5 -0.6,-1 0,-3.3 0.6,-4.8 l 3.7,0.2 c 0,0.3 0.1,0.6 0.1,0.9 0.1,1 0,2.3 -0.7,3.2 z" id="path35"></path>
				<path class="st2" d="m 126.6,226.2 c -3.4,-1 -3.1,-5.9 -2.8,-10.6 0.1,-1.7 0.2,-3.3 0.1,-4.6 -0.3,-4.4 -1,-9.3 -4.6,-11.5 -3.8,-2.4 -10.1,-1.8 -14,-1.3 0,0 0,0 0,0 0,0 0,0 0,0 -1.4,0.4 -2.8,0.7 -3.8,0.7 -2.3,-0.1 -4.1,-1.1 -5.6,-1.9 -1.2,-0.7 -2.3,-1.2 -3.3,-1.2 -0.1,0 -0.1,0 -0.2,0 -3,0.2 -4.4,0.9 -5.6,2.1 -0.3,0.3 -0.7,1.1 -2,4.7 -0.6,1.8 -0.8,2.8 -0.9,3.8 -0.1,0.9 -0.2,1.8 -0.7,3.2 -0.3,0.9 -0.6,1.8 -0.8,2.5 -0.6,2.1 -1.1,3.7 -2.6,5.7 -0.2,0.2 -0.4,0.6 -0.6,1 -0.3,0.5 -0.7,1.2 -1.3,1.9 -0.4,0.5 -1.3,2.5 -1.2,3.1 0.1,1 0.4,1.6 0.7,2.3 0.4,0.7 0.8,1.5 0.8,2.6 v 0.2 c 0.1,1.7 -0.1,2.6 -3.4,5.5 -2.1,1.9 -3.6,3.7 -4.6,5 -0.1,0.1 0,0.3 0.2,0.3 0,0 0.1,0 0.1,0 0.1,0 0.1,0 0.2,0 0.1,0 0.1,0 0.2,0 0.1,0 0.1,0 0.2,0 0.8,0.1 1.6,0.4 2.1,1 0.1,0.1 0.2,0.1 0.4,0.1 0.5,-0.2 1.1,-0.2 1.7,-0.1 0.7,0.1 1.3,0.3 1.8,0.7 0.2,0.2 0.4,0.2 0.6,0.2 0.5,-0.1 1.1,-0.1 1.6,0.1 0.4,0.1 0.7,0.4 1,0.6 0.2,0.3 0.7,0.3 1,0.1 0.1,-0.1 0.3,-0.1 0.4,-0.2 0.7,-0.2 1.5,-0.1 2.2,0.1 0.3,0.1 0.7,0.2 1,0.4 0.5,0.3 0.8,0.8 1.1,1.4 0.2,0.4 0.7,0.6 1.1,0.3 0.4,-0.3 0.8,-0.4 1.2,-0.2 0.1,0.1 0.3,0.2 0.4,0.3 0.3,0.3 0.7,0.6 1.1,0.5 1.1,-0.3 2.4,-0.1 3.3,0.4 0.4,0.2 0.7,0.5 1,0.9 0,0 0,0 0,0 0,0 0,0 0,0 v -0.2 c 0,-0.1 0.1,-0.2 0.2,-0.2 l 0.2,-0.1 c 0.5,-0.2 3.3,-1 4.4,0.2 0,0 0.1,0.1 0.2,0 0.1,-0.2 0.3,-0.2 0.3,-0.3 0.7,-0.4 1.9,-0.5 2.7,0.2 0.2,0.1 0.4,0.1 0.5,-0.1 0.1,-0.1 0.2,-0.2 0.3,-0.3 0.3,-0.2 0.6,-0.4 1,-0.3 l 1.5,-0.1 c 0.4,0 1.6,-0.1 2,-0.2 0,0 0.1,0 0.1,0 0.2,0 0.3,-0.1 0.5,-0.1 0.7,-0.2 1.6,-0.3 2.3,0 0.7,0.3 0.6,1.1 0.5,1.7 0,0.3 -0.1,0.6 -0.1,0.8 0,0.1 0,0.3 0,0.4 0,0.6 0,1.1 -0.1,1.5 0,0 0,0 0,0 0,0 0,0 0,0 l 0.1,0.3 c 0.1,0.3 0.4,0.5 0.7,0.3 0.5,-0.3 1,-0.7 1.2,-1 0,0 0,0 0,-0.1 0,-0.1 0.1,-0.2 0.1,-0.5 0.1,-0.6 0.2,-1.7 0.2,-4.1 0,-0.1 0,-0.2 0,-0.3 0,-0.9 0,-1.6 0,-2.2 -0.1,-1.3 -0.1,-2.3 0.5,-3.3 0.6,-1 1.2,-1.4 1.8,-1.7 0.7,-0.4 1.4,-0.9 2.7,-2.6 0.6,-0.9 0.7,-1.2 0.8,-1.5 0.1,-0.6 0.3,-1 1.3,-1.8 0.8,-0.6 3.1,-2.4 6.3,-1.8 1,0.2 2.7,0.7 4.4,1.4 0,0 0,0 0,0 0,0 0,0 0,0 0.1,0 0.1,0 0.2,0.1 0,0 0.1,0 0.1,0 1.5,0.6 2.9,1.2 3.8,1.7 0.3,0.1 0.6,0.1 0.8,-0.2 0.3,-0.3 0.6,-0.6 0.9,-0.8 0.1,-0.1 0.2,-0.1 0.3,-0.2 0.3,-0.3 0.3,-0.8 -0.1,-1 -4.5,-2 -8.7,-3.3 -10.1,-3.7 z m -32,1 c -1,4.5 -8.1,9.6 -11.3,9.6 h -0.1 c -0.1,0 -0.1,0 -0.2,0 -0.1,0 -0.1,0 -0.2,0 0,0 -0.1,0 -0.1,0 -0.6,-0.2 -1.4,-0.6 -2,-1.2 -0.4,-0.4 -0.7,-0.9 -0.9,-1.4 0,-0.1 0,-0.2 -0.1,-0.3 -0.2,-0.8 -0.4,-1.7 0.3,-3.3 0.1,-0.2 0.2,-0.4 0.3,-0.6 0,-0.1 0.1,-0.1 0.1,-0.2 0.1,-0.2 0.1,-0.3 0.2,-0.5 0.1,-0.2 0.2,-0.4 0.2,-0.6 0,-0.1 0.1,-0.1 0.1,-0.2 0.2,-0.5 0.2,-0.8 0.2,-1 0,-0.2 0,-0.4 0.1,-0.7 0.2,-0.9 0.3,-1.6 0.4,-2.2 0.2,-1.2 0.3,-2.2 0.9,-3.1 0.1,-0.2 0.2,-0.3 0.4,-0.4 0,0 0.1,-0.1 0.1,-0.1 0,0 0.1,-0.1 0.1,-0.1 0.2,-0.1 0.3,-0.2 0.5,-0.3 0.1,0 0.1,-0.1 0.2,-0.1 0.1,0 0.3,-0.1 0.4,-0.1 0.6,-0.1 1.3,-0.2 2,-0.1 0.9,0.1 1.6,0.2 2.3,0.4 0.6,0.2 1.1,0.3 1.5,0.5 0,0 0.1,0 0.1,0.1 0.1,0 0.2,0.1 0.2,0.1 0.1,0.1 0.2,0.1 0.3,0.1 0.1,0.1 0.3,0.1 0.4,0.2 h 0.1 c 0.5,0.2 0.9,0.5 1.3,0.7 0.2,0.1 0.3,0.3 0.5,0.4 0.1,0 0.1,0.1 0.1,0.1 0,0 0.1,0.1 0.1,0.1 1.8,1.6 1.7,3.2 1.5,4.2 z m 3.3,-17.2 -0.1,0.8 c -0.3,1.9 -1,4.4 -3.7,5.1 -2.6,0.6 -3.2,0.8 -5,0.8 0,0 -0.1,0 -0.1,0 -1.3,0 -3.9,-0.8 -4.4,-2.9 -0.3,-1.4 0.3,-2.3 1.3,-4 0.2,-0.3 0.3,-0.6 0.5,-0.9 1.3,-2.2 1.8,-3.8 2.2,-5 0.4,-1.2 0.7,-2.3 1.6,-3.1 0.2,-0.2 0.4,-0.4 0.7,-0.6 0.2,-0.1 0.3,-0.2 0.5,-0.3 0.2,-0.1 0.5,-0.2 0.8,-0.3 0.6,-0.2 1.2,-0.3 1.9,-0.3 1.2,0 2.5,0.4 3.4,1.1 0.4,0.3 1,1 1.3,2.9 0,0.9 -0.3,2.7 -0.9,6.7 z m 19.1,5.3 c -0.9,1.6 -1.4,2.5 -2.2,3.1 -1.6,1.3 -3.4,1.6 -4.9,1.6 -1.1,0 -2,-0.2 -2.6,-0.3 -1.6,-0.3 -4.5,-0.8 -5.5,-3.1 -0.2,-0.5 -0.2,-0.7 -0.2,-1.1 0,-0.4 0,-1 -0.2,-2.4 V 213 c -0.1,-0.7 -0.2,-1.4 0,-2.4 v -0.1 c 0.5,-2.8 0.7,-3.2 0.8,-3.5 0.3,-0.5 1,-0.8 1.5,-0.5 0.5,0.3 0.8,0.9 0.5,1.5 -0.1,0.2 -0.2,0.8 -0.6,2.9 v 0.1 c -0.1,0.6 -0.1,1.1 0,1.7 v 0.1 c 0.2,1.6 0.2,2.3 0.2,2.7 0,0.1 0,0.1 0,0.2 0,0 0,0 0,0.1 0.2,0.4 0.5,0.7 0.9,0.9 0.4,0.2 0.8,-0.2 0.7,-0.6 -0.5,-2.4 -0.4,-5.2 0.5,-6.9 0.3,-0.6 0.9,-1.6 1.4,-2.5 0,0 0,0 0,0 0,0 0,0 0,0 0.1,-0.1 0.1,-0.2 0.2,-0.3 0,-0.1 0.1,-0.2 0.1,-0.2 0.2,-0.4 0.5,-0.8 0.6,-1 0,0 0,-0.1 0.1,-0.1 0,0 0,-0.1 0.1,-0.1 0,-0.1 0.1,-0.1 0.1,-0.2 0,0 0,0 0,-0.1 0,0 0,0 0,0 0,0 0,-0.1 0,-0.1 0,0 0.1,-0.1 0.1,-0.1 0,0 0,0 0,0 0,0 0,0 0,0 0,0 0,0 0,0 0.1,-0.2 0.3,-0.4 0.4,-0.6 0.3,-0.4 0,-0.9 -0.5,-0.7 -0.8,0.4 -1.3,0.8 -1.4,0.8 -0.5,0.4 -1.2,0.3 -1.6,-0.2 -0.4,-0.5 -0.3,-1.2 0.2,-1.6 0.6,-0.5 3.6,-2.7 7.3,-1.6 2.6,0.7 4,2.8 4.5,3.5 0.4,0.6 1.7,2.5 1.7,5.1 0.1,2 -0.7,3.5 -2.2,6.1 z" id="path37"></path>
				<path class="st2" d="m 93.2,201.6 c -0.2,0.5 -0.4,1 -0.7,1.6 -0.6,1.4 -1.2,3 -1.5,3.6 -0.5,1 -0.9,1.6 -1.3,2.1 -0.4,0.6 -0.7,1 -0.9,1.7 -0.4,1.1 -0.5,2.4 -0.2,3.8 -0.7,-0.1 -1.8,-0.6 -2,-1.2 -0.1,-0.5 0.2,-0.9 1,-2.3 0.2,-0.3 0.3,-0.6 0.5,-0.9 1.4,-2.4 2,-4.2 2.4,-5.5 0.5,-1.4 0.7,-2 1.4,-2.5 0.5,-0.1 0.9,-0.3 1.3,-0.4 z" id="path39"></path>
				<path class="st2" d="m 91.8,252 c -0.8,1.6 -1.7,3 -2.3,3.8 -0.5,-1.3 -1.4,-4.4 -1.1,-6.9 0,-0.1 0,-0.1 0,-0.2 0.1,-0.8 0.3,-1.5 0.7,-2 0.2,-0.4 0.9,-0.6 1.7,-0.6 0.6,0 1.2,0.1 1.7,0.4 v 0 c 0.3,0.1 0.7,0.5 0.7,1.3 -0.1,1.1 -0.6,2.7 -1.4,4.2 z" id="path41"></path>
				<path class="st2" d="m 134.4,234.2 c 0.1,0 0.1,0.1 0.1,0.2 -0.2,0.5 -0.5,0.8 -0.8,1.2 -0.4,0.5 -0.8,1 -1.3,1.8 -0.6,1.2 -0.8,2.3 -0.9,5 -0.1,3.2 0,5.1 0.1,6.4 0.1,1.3 0.1,2.1 -0.1,3.3 -0.5,2.5 -1.5,4.2 -2.9,6.3 -1.7,2.6 -3.5,5.4 -6.4,6.3 -0.3,0.1 -0.3,0.1 -1,0.1 -0.7,0 -1.8,0 -3.9,0.1 -3.8,0.1 -5.8,0.2 -7.4,0.5 -1.7,0.3 -2.6,0.7 -3.5,1.1 -0.8,0.3 -1.5,0.6 -3,0.9 -0.8,0.2 -2.1,0.4 -6.4,0.4 -4.5,0 -7.2,0 -10.8,-0.4 -4.9,-0.6 -7.4,-0.8 -9,-1.7 -3.9,-2.1 -5.5,-5.8 -8.2,-11.9 0,0 0,0 0,0 0,-0.1 0.1,-0.2 0.1,-0.1 0.1,0.1 0.3,0.1 0.4,0.2 0.1,0 0.2,0.1 0.4,0.1 0.2,0 0.5,0 0.8,0 0,0 0.1,0 0.1,0 0,0 0,0 0,0 0,0 0.1,0 0.1,0 0.2,0.5 0.4,0.9 0.9,1.1 0.5,0.2 1,0.3 1.5,0.3 0.5,0 1.1,0 1.6,-0.1 0.3,0 0.6,0.1 0.7,0.4 0.5,1.2 1.1,2 2,2.1 0,0 0.1,0 0.2,0 0.2,0 0.4,0 0.8,-0.3 0.4,-0.3 1.1,-0.1 1.4,0.3 0.2,0.2 0.4,0.4 0.6,0.5 0.9,0.9 3.2,1.4 5,1.4 1,0 1.9,-0.1 2.5,-0.4 0.8,-0.4 0.8,-1 0.7,-1.2 -0.1,-0.4 -0.1,-0.8 -0.2,-1.2 0,0 0.1,-0.1 0.1,0 0.1,0.2 0.2,0.6 0.6,0.6 0,0 0.1,0 0.1,0 0.5,0 1.3,0.2 1.5,0.7 0.1,0.3 0.2,0.5 0.3,0.7 0.3,0.5 1,1.1 2.2,1.1 h 0.1 c 1.5,0 2.6,-0.5 3.3,-1.4 0,-0.1 0.1,-0.1 0.1,-0.2 0.3,-0.4 1.1,-0.4 1.4,-0.1 0.4,0.4 0.9,0.5 1.4,0.5 0.1,0 0.2,0 0.3,0 0.7,-0.1 1.2,-0.4 1.6,-1 0.3,-0.4 0.5,-0.9 0.6,-1.4 0,-0.2 0.3,-0.2 0.4,-0.1 0.3,0.3 0.7,0.5 1.4,0.5 0.2,0 0.3,0 0.5,-0.1 1.3,-0.3 1.9,-1.3 2.2,-2.5 0,0 0.1,-0.1 0.1,0 0.3,0.4 0.9,0.8 1.9,0.8 0.1,0 0.1,0 0.2,0 0.5,0 1,-0.3 1.3,-0.7 0.4,-0.5 0.6,-1.3 0.6,-2 0,-0.3 0.2,-0.5 0.5,-0.6 1.1,-0.5 2.3,-1.4 2.7,-2.1 0,0 0,0 0,0 0.1,-0.2 0.3,-0.4 0.5,-0.4 0.8,-0.2 1.2,-0.3 1.5,-0.5 0.3,-0.1 0.5,-0.2 1.1,-0.3 4.9,-0.7 5.8,-0.9 6.9,-1.6 1.6,-1.1 1.7,-2.5 1.7,-3.9 0.1,-1.2 0.1,-2.5 1.1,-4.1 0.3,-0.6 0.7,-1.3 1.1,-2.1 0.7,-1.3 1.7,-3.1 2.4,-4.1 0.2,-0.2 0.5,-0.3 0.7,-0.2 1.7,0.8 3.1,1.5 3.4,1.8 z" id="path43"></path>
				<path class="st2" d="m 87.1,248.7 c -0.2,1.7 -0.3,3.9 0,6.9 0.1,0.8 0.2,1.7 0.3,2.6 -0.2,0.1 -0.9,0.3 -2.1,0.3 -1.8,0 -3.5,-0.5 -4,-1 l -0.1,-0.1 c -0.4,-0.3 -0.7,-0.6 -0.7,-1.2 0,-0.2 0.1,-0.4 0.3,-0.7 0.1,-0.2 0.2,-0.4 0.4,-0.6 0.3,-0.4 0.7,-0.9 1,-1.5 1.1,-1.9 1.5,-2.4 2,-3.2 0,-0.1 0.1,-0.1 0.1,-0.2 0.3,-0.4 0.7,-0.9 1.2,-1.8 0.4,-0.6 0.8,-1.1 1,-1.5 0.5,-0.6 0.8,-1 1,-1.2 0,0.3 -0.1,0.7 -0.2,1.1 0,0.5 -0.1,1.2 -0.2,2.1 z" id="path45"></path>
				<path class="st2" d="m 86.3,222.5 c 0,0 0,0 0,0 -0.3,0.4 -0.5,0.7 -0.8,1.4 -0.8,1.9 -0.9,2.9 -0.9,3.8 0,0.4 0,0.8 -0.1,1.2 -0.1,0.3 -0.2,0.6 -0.4,0.9 -0.5,1.1 -1.1,2.6 -0.9,4.6 -0.4,-0.2 -1,-0.6 -1.1,-0.9 0,-0.1 0,-0.2 -0.1,-0.3 -0.1,-0.6 -0.2,-1 0.2,-1.9 1,-2.4 1.2,-3 1.3,-3.6 0,-0.1 0,-0.3 0.1,-0.4 0.2,-0.9 0.3,-1.8 0.4,-2.4 0.1,-1 0.2,-1.6 0.6,-2.1 0.1,-0.2 0.5,-0.3 1,-0.3 0.2,0 0.4,0 0.7,0 v 0 c -0.1,0 0,0 0,0 z" id="path47"></path>
				<path class="st2" d="m 84.9,246.2 c -0.1,-0.6 -0.2,-1.2 -0.4,-1.7 0,0 -0.1,-0.2 -0.1,-0.2 0,-0.1 -0.1,-0.1 -0.1,-0.2 0,0 0,0 0,0 0,0 0,0 0,0 0,0 0,-0.1 -0.1,-0.1 0,0 -0.1,-0.1 -0.1,-0.1 0,0 0,0 0,0 0,0 0,0 -0.1,0 0,0 -0.1,0 -0.1,-0.1 0,0 0,0 -0.1,0 0,0 0,0 0,0 0,0 0,0 0,0 0,0 0,0 0,0 0,0 0,0 0,0 0,0 0,0 0,0 0,0 0,0 0,0 -0.3,-0.1 -0.7,-0.3 -1,-0.3 0,0 0,0 0,0 v 0 c 0,0 -0.1,0 -0.1,0 0,0 -0.1,0 -0.1,0 0,0 0,0 -0.1,0 v 0 c 0,0 0,0 0,0 0,0 0,0 0,0 0,0 0,0 0,0 -0.1,0 -0.2,0 -0.2,0.1 0,0 -0.1,0 -0.1,0.1 0,0 -0.1,0 -0.1,0.1 0,0 0,0 0,0 v 0 c 0,0 -0.1,0.1 -0.1,0.1 0,0 0,0.1 -0.1,0.1 0,0 0,0 0,0 0,0 0,0 0,0 0,0 0,0 0,0 0,0 0,0 0,0 0,0 0,0 0,0 -0.1,0.2 -0.3,0.4 -0.4,0.6 -0.3,0.5 -0.7,1 -1,1.5 -0.3,0.4 -0.6,0.9 -0.9,1.3 -0.2,0.2 -0.3,0.5 -0.5,0.7 0,0 -0.1,0.1 -0.1,0.1 0.2,0 0.4,0.1 0.6,0.1 0.5,0.1 0.9,0.2 1.4,0.2 0.9,0.1 1.9,0.2 2.9,0.2 0,0 0.1,0 0.1,0 0.2,-0.3 0.5,-0.7 0.8,-1.2 0.2,-0.3 0.4,-0.6 0.5,-0.8 -0.3,-0.2 -0.4,-0.3 -0.4,-0.5 z" id="path49"></path>
				<path class="st2" d="m 81.6,250.1 c -0.1,0.7 -0.9,2.6 -2.2,4.4 -1.1,1.5 -1.7,1.9 -1.8,1.9 -0.5,-0.1 -1,-1.3 -1.4,-2.6 -0.2,-0.5 -0.3,-1 -0.4,-1.4 -0.3,-1 -0.3,-2.2 -0.3,-3 1.1,0.6 2.9,0.8 5.6,0.8 v 0 c 0.1,-0.1 0.3,-0.1 0.5,-0.1 z" id="path51"></path>
				<path class="st2" d="m 79.7,244.1 v 0 c 0,0.1 0,0.1 0,0 -0.5,0.7 -0.9,1.4 -1.4,2.1 -0.2,0.3 -0.5,0.7 -0.7,1 -0.1,0.2 -0.3,0.4 -0.4,0.6 -0.4,-0.1 -0.8,-0.2 -1.1,-0.3 -0.3,-0.1 -0.6,-0.2 -0.9,-0.3 -0.1,0 -0.1,0 -0.2,-0.1 0,-0.1 -0.1,-0.2 -0.2,-0.3 0,0 0,0 0,0 0.1,-0.2 0.2,-0.4 0.3,-0.7 0.2,-0.4 0.4,-0.8 0.6,-1.2 0.4,-0.7 0.9,-1.4 1.6,-1.9 0,0 0.1,0 0.1,-0.1 0.3,-0.2 0.5,-0.3 0.9,-0.3 0,0 0.3,0 0.4,0 0,0 0,0 0,0 v 0 c 0,0 0,0 0,0 0.1,0 0.2,0 0.2,0.1 0,0 0.1,0 0.1,0 0.1,0 0.1,0.1 0.2,0.1 -0.1,-0.1 0.1,0.2 0.1,0.2 0.3,0.5 0.3,0.8 0.4,1.1 z" id="path53"></path>
				<path class="st2" d="m 76.1,242.2 c -0.8,0.7 -1.4,1.6 -2,2.6 -0.3,0.5 -0.5,1.1 -0.8,1.6 0,0.1 -0.1,0.1 -0.1,0.2 -0.3,-0.1 -0.5,-0.1 -0.8,-0.2 -0.3,-0.1 -0.5,-0.2 -0.8,-0.3 -0.1,-0.1 -0.2,-0.1 -0.3,-0.2 0.3,-0.5 0.6,-0.9 0.8,-1.4 0.4,-0.6 0.8,-1.2 1.3,-1.8 0.2,-0.2 0.4,-0.5 0.6,-0.6 0.3,-0.2 0.6,-0.1 0.9,-0.1 0.3,0 0.6,0 0.9,0.1 0.2,0.1 0.3,0.1 0.3,0.1 z" id="path55"></path>
				<path class="st2" d="m 74.8,253.5 c 0,0 -0.1,0.1 -0.1,0.1 0,0 -0.1,0 -0.1,0 -0.2,0 -0.4,0 -0.6,0 -0.4,0 -0.8,0 -1.2,0 -0.2,0 -0.4,0 -0.5,-0.2 -0.1,-0.2 -0.2,-0.6 -0.2,-0.9 -0.3,-1.4 -0.3,-2.9 -0.1,-4.4 0.7,0.3 1.5,0.5 2.3,0.6 -0.2,1.3 0.1,3.2 0.3,3.8 0,0.5 0.1,0.7 0.2,1 z" id="path57"></path>
				<path class="st2" d="m 72.4,241.8 c -0.7,0.8 -1.3,1.7 -1.8,2.6 -0.2,0.4 -0.5,0.7 -0.6,1.1 -0.3,-0.1 -0.5,-0.2 -0.8,-0.3 -0.2,-0.1 -0.4,-0.3 -0.6,-0.4 0,0 -0.2,-0.1 -0.2,-0.2 0,0 0,0 -0.1,0 0.1,-0.2 0.2,-0.4 0.2,-0.5 0.1,-0.3 0.3,-0.6 0.5,-0.9 0.3,-0.5 0.7,-1.1 1,-1.6 0.1,-0.2 0.3,-0.4 0.5,-0.5 0.2,-0.1 0.5,0 0.6,0 0.6,0.1 0.9,0.3 1.3,0.7 z" id="path59"></path>
				<path class="st2" d="m 67.3,245.3 c 0,0 0,0 0,0 0.3,0.2 0.5,0.4 0.8,0.6 0.1,0.1 0.2,0.2 0.3,0.3 0,0 0,0 0,0.1 -0.3,1.1 -0.5,2.3 -0.5,3.4 0,0.1 -0.1,0.1 -0.1,0 -0.3,-1.4 -0.8,-3.6 -0.5,-4.4 z" id="path61"></path>
				<path class="st2" d="m 70.5,247.8 c -0.1,1 -0.2,2 -0.2,3 0,0.5 0.1,1.1 0.2,1.6 0,0 0,0 0,0 v 0 c -0.1,0 -0.2,0 -0.4,0 0,0 0,0 -0.1,0 v 0 c 0,0 0,0 -0.1,0 -0.1,0 -0.2,0 -0.3,-0.1 -0.1,-0.1 -0.3,-0.3 -0.4,-0.4 -0.3,-0.5 -0.3,-1 -0.3,-1.5 0,-1 0,-2 0.2,-3.1 0.2,0.1 0.3,0.1 0.5,0.2 0.4,0.1 0.7,0.2 0.9,0.3 z" id="path63"></path>
			</g>
			
		<g id="g157" transform="translate(-45.900003,-169.00001)">
		
		
		
		
		
		
		
		
	</g>
</svg>
